<svg xmlns="http://www.w3.org/2000/svg" viewBox="0 0 335 451"><style>.st0{fill:#3d3c3c}.st1{fill:#000111}.st2{fill:#fff}</style><g id="Color_2"><path class="st0" d="M208 168h-82c-6.6 0-12-5.4-12-12v-50c0-6.6 5.4-12 12-12h82c6.6 0 12 5.4 12 12v50c0 6.6-5.4 12-12 12zm-41 20c-30.4 0-55 24.6-55 55s24.6 55 55 55 55-24.6 55-55-24.6-55-55-55zm29.2 28.5c0 11.3-9.2 20.5-20.5 20.5h-17c-11.3 0-20.5-9.2-20.5-20.5 0-6.6 5.4-12 12-12h34c6.6 0 12 5.4 12 12zm-77.1 197h17c11.3 0 20.5 9.2 20.5 20.5 0 6.6-5.4 12-12 12h-34c-6.6 0-12-5.4-12-12 0-11.3 9.2-20.5 20.5-20.5zM34.1 218h-5.2C15.7 218 5 205.8 5 190.8v-6.2h14v6.2c0 7.1 4.5 13.2 9.9 13.2h5.2c5.4 0 9.9-6 9.9-13.2v-6.2h14v6.2c0 15-10.7 27.2-23.9 27.2z"/><path class="st0" d="M112.5 237.5s3.8-26.2 20.2-36.3c0 0-11.7-10.7-28.2-3.8 0 0-18.2 5.7-17.5 28.2l-.2 14.3H112l.5-2.4zm103.7 176h-17c-11.3 0-20.5 9.2-20.5 20.5 0 6.6 5.4 12 12 12h34c6.6 0 12-5.4 12-12 0-11.3-9.3-20.5-20.5-20.5zm85-195.5h5.2c13.2 0 23.9-12.2 23.9-27.2v-6.2h-14v6.2c0 7.1-4.5 13.2-9.9 13.2h-5.2c-5.4 0-9.9-6-9.9-13.2v-6.2h-14v6.2c0 15 10.7 27.2 23.9 27.2zm-78.4 19.5s-3.8-26.2-20.2-36.3c0 0 11.7-10.7 28.2-3.8 0 0 18.2 5.7 17.5 28.2l.2 14.3h-25.2l-.5-2.4z"/></g><g id="Color_1_1_"><path class="st1" d="M142 127s23-20 51 1c0 0 0-23-25-24 0 0-22-2-26 23zm0 8s5 22 27 20c0 0 18 1 24-21 0 0-23 17-51 1z"/><circle class="st1" cx="167" cy="130" r="7"/><path class="st1" d="M144.5 167.8s20.8-19.2 46.7.5l-9.8.2-.4 21.5s-13-4-28 0v-21l-8.5-1.2zM65.7 289c-22.1 0-40-22-40-49v-22h10v22c0 21.5 13.5 39 30 39s30-17.5 30-39h10c0 27-18 49-40 49zm67 125h-10v-88.8c-.2-2.2-.9-15 6.7-24.5 3.2-4 7.4-6.8 12.4-8.5 3.7 1.2 11.2 3.7 11.2 3.7l1.2 1.7c-5.8.6-14.1 5.7-17 9.4-5.6 6.9-4.6 17.3-4.5 17.4V414z"/><circle class="st1" cx="167" cy="269" r="10"/><path class="st1" d="M143.3 274H136c-2.8 0-5-2.3-5-5v-22c0-2.8 2.3-5 5-5h7.3c2.8 0 5 2.3 5 5v22c0 2.7-2.3 5-5 5zm55 0H191c-2.8 0-5-2.3-5-5v-22c0-2.8 2.3-5 5-5h7.3c2.8 0 5 2.3 5 5v22c0 2.7-2.3 5-5 5zm70.2 15.3c22.1 0 40-22 40-49v-22h-10v22c0 21.5-13.5 39-30 39s-30-17.5-30-39h-10c0 27.1 18 49 40 49zm-67 125h10v-88.8c.2-2.2.9-15-6.7-24.5-3.2-4-7.4-6.8-12.4-8.5-3.7 1.2-11.2 3.7-11.2 3.7L180 298c5.8.6 14.1 5.7 17 9.4 5.6 6.9 4.6 17.3 4.5 17.4v89.5z"/><ellipse class="st1" cx="167.4" cy="68" rx="8.1" ry="8.4"/></g><g id="Outline"><path class="st2" d="M175.8 237h-17c-11.3 0-20.5-9.2-20.5-20.5 0-6.6 5.4-12 12-12h34c6.6 0 12 5.4 12 12-.1 11.3-9.3 20.5-20.5 20.5zm15.9-110.2c-21-15.8-40.3-5.2-40.3-5.2l-6.2 3.7c-5.2 1.3-3.5 5.7-3.5 5.7-.8 3.2 2.5 4.5 2.5 4.5 20.8 12.3 41.2 2.7 41.2 2.7 9.2-3.8 7.8-7.2 7.8-7.2.8-4-1.5-4.2-1.5-4.2zM167 137c-3.9 0-7-3.1-7-7s3.1-7 7-7 7 3.1 7 7-3.1 7-7 7z"/><path class="st2" d="M208.4 169.5h-82c-7.2 0-13-5.8-13-13v-50c0-7.2 5.8-13 13-13h82c7.2 0 13 5.8 13 13v50c0 7.2-5.9 13-13 13zm-82-74c-6.1 0-11 4.9-11 11v50c0 6.1 4.9 11 11 11h82c6.1 0 11-4.9 11-11v-50c0-6.1-4.9-11-11-11h-82zm41 204c-30.9 0-56-25.1-56-56s25.1-56 56-56 56 25.1 56 56-25.1 56-56 56zm0-110c-29.8 0-54 24.2-54 54s24.2 54 54 54 54-24.2 54-54-24.2-54-54-54z"/><path class="st2" d="M167.4 156.5c-14.9 0-27-12.1-27-27s12.1-27 27-27 27 12.1 27 27-12.1 27-27 27zm0-52c-13.8 0-25 11.2-25 25s11.2 25 25 25 25-11.2 25-25-11.2-25-25-25zm0-27c-5.2 0-9.5-4.3-9.5-9.5s4.3-9.5 9.5-9.5 9.5 4.3 9.5 9.5-4.3 9.5-9.5 9.5zm0-17c-4.1 0-7.5 3.4-7.5 7.5s3.4 7.5 7.5 7.5 7.5-3.4 7.5-7.5-3.4-7.5-7.5-7.5zM152 169h2v21.4h-2zm28 0h2v21.4h-2zm-13 111c-6.1 0-11-4.9-11-11s4.9-11 11-11 11 4.9 11 11-4.9 11-11 11zm0-20c-5 0-9 4-9 9s4 9 9 9 9-4 9-9-4-9-9-9z"/><path class="st2" d="M166 77h2v17.3h-2z"/><path d="M167 138c-4.4 0-8-3.6-8-8s3.6-8 8-8 8 3.6 8 8-3.6 8-8 8zm0-14c-3.3 0-6 2.7-6 6s2.7 6 6 6 6-2.7 6-6-2.7-6-6-6z"/><path class="st2" d="M192.4 128.6c-28-20.4-49.7-.3-49.9-.1l-1.4-1.4c.2-.2 23.1-21.5 52.4-.1l-1.1 1.6zm-25.6 14.1c-15.3 0-25.3-8-25.4-8.1l1.3-1.5c.2.2 21.5 17.2 49.7-.1l1 1.7c-9.9 6-18.9 8-26.6 8zM141 134h-12c-1.9 0-3.5-1.6-3.5-3.5s1.6-3.5 3.5-3.5h12v2h-12c-.8 0-1.5.7-1.5 1.5s.7 1.5 1.5 1.5h12v2z"/><path class="st2" d="M205 134h-12v-2h12c.8 0 1.5-.7 1.5-1.5s-.7-1.5-1.5-1.5h-12v-2h12c1.9 0 3.5 1.6 3.5 3.5s-1.6 3.5-3.5 3.5zm-13.6 35.1c-27-19.9-47.3-.3-47.5-.1l-1.4-1.4c.2-.2 21.8-21 50.1-.1l-1.2 1.6zm-38.1 14.4H180v2h-26.7zm0-5.5H180v2h-26.7zm0-5.5H180v2h-26.7zM132 29l8 24 5-5 9 18-8-27-5 6zm34.2-20l-5.1 24.8 6.9-1.9-1.2 20.1 6.5-27.4-7.3 2.7zm38 21.1l-17.5 18.3 6.8 2.1-11.7 16.4 20.1-19.7-7.6-1.6zM143.3 275H136c-3.3 0-6-2.7-6-6v-22c0-3.3 2.7-6 6-6h7.3c3.3 0 6 2.7 6 6v22c0 3.3-2.7 6-6 6zm-7.3-32c-2.2 0-4 1.8-4 4v22c0 2.2 1.8 4 4 4h7.3c2.2 0 4-1.8 4-4v-22c0-2.2-1.8-4-4-4H136zm62.3 32H191c-3.3 0-6-2.7-6-6v-22c0-3.3 2.7-6 6-6h7.3c3.3 0 6 2.7 6 6v22c0 3.3-2.7 6-6 6zm-7.3-32c-2.2 0-4 1.8-4 4v22c0 2.2 1.8 4 4 4h7.3c2.2 0 4-1.8 4-4v-22c0-2.2-1.8-4-4-4H191zm-34.5 9.8c-1.4 0-2.5-1.1-2.5-2.5s1.1-2.5 2.5-2.5 2.5 1.1 2.5 2.5c0 1.3-1.1 2.5-2.5 2.5zm10 0c-1.4 0-2.5-1.1-2.5-2.5s1.1-2.5 2.5-2.5 2.5 1.1 2.5 2.5c0 1.3-1.1 2.5-2.5 2.5zm9.2-.2c-1.3-.4-2-1.8-1.6-3.2.4-1.3 1.8-2 3.2-1.6 1.3.4 2 1.8 1.6 3.2-.5 1.3-1.9 2.1-3.2 1.6z"/><path d="M175.8 238h-17c-11.9 0-21.5-9.6-21.5-21.5 0-7.2 5.8-13 13-13h34c7.2 0 13 5.8 13 13-.1 11.9-9.7 21.5-21.5 21.5zm-25.6-32.5c-6.1 0-11 4.9-11 11 0 10.8 8.7 19.5 19.5 19.5h17c10.8 0 19.5-8.7 19.5-19.5 0-6.1-4.9-11-11-11h-34z"/><path d="M156.8 236.7c0-5.5 4.5-10 10-10s10 4.5 10 10m-18.5-25.5h1v12.3h-1zm17.7 0h1v12.3h-1zm8.8 0h1v12.3h-1zm-35.3 0h1v12.3h-1zm17.7 0h1v12.3h-1z"/><path d="M170.7 228.3l9.5-5.1-5.4 9z"/><path class="st2" d="M131 263h17v2h-17zm0-12.8h17v2h-17zm0 3.2h17v2h-17zm0 3.2h17v2h-17zm0 3.2h17v2h-17zm0-12.8h17v2h-17zm55 16h17v2h-17zm0-12.8h17v2h-17zm0 3.2h17v2h-17zm0 3.2h17v2h-17zm0 3.2h17v2h-17zm0-12.8h17v2h-17zm-74-6H86v-17.5c0-16.3 13.2-29.5 29.5-29.5 6.5 0 12.7 2.1 17.8 6l-1.2 1.6c-4.8-3.7-10.6-5.6-16.6-5.6-15.2 0-27.5 12.3-27.5 27.5V239h24v2z"/><path class="st2" d="M66 290c-22.6 0-41-22.4-41-50v-23h12v23c0 21 13 38 29 38s29-17 29-38v-1h12v1c0 27.6-18.4 50-41 50zm-39-71v21c0 26.5 17.5 48 39 48 21.2 0 38.6-21 39-47h-8c-.4 21.6-14.2 39-31 39-17.1 0-31-17.9-31-40v-21h-8zm107 194.2h-2v-88.7s-1-10.9 4.8-18.1c3.1-3.9 11.6-9.1 17.6-9.7l1.1-.4.6 1.9-1.4.4c-5.4.6-13.5 5.4-16.3 9-5.3 6.6-4.3 16.6-4.3 16.7v.6l-.1 88.3z"/><path class="st2" d="M123 412.2h10v2h-10z"/><path class="st2" d="M124 413.2h-2v-88c-.2-2.4-.9-15.3 6.9-25.1 3.3-4.1 7.6-7.1 12.9-8.8l.6 1.9c-4.9 1.6-8.9 4.4-11.9 8.2-7.4 9.2-6.7 21.4-6.5 23.8v88zM86.8 230h26.5v2H86.8zm.7-4h27v2h-27zm6-2.5c-1 0-1.9-.8-1.9-1.9 0-1 .8-1.9 1.9-1.9 1 0 1.9.8 1.9 1.9 0 1-.8 1.9-1.9 1.9zm7.5 0c-1 0-1.9-.8-1.9-1.9 0-1 .8-1.9 1.9-1.9 1 0 1.9.8 1.9 1.9 0 1-.8 1.9-1.9 1.9zm7-.1c-1-.3-1.5-1.4-1.2-2.4.3-1 1.4-1.5 2.4-1.2 1 .3 1.5 1.4 1.2 2.4-.4.9-1.5 1.5-2.4 1.2z"/><path class="st2" d="M144.8 447h-34c-7.2 0-13-5.8-13-13 0-11.9 9.6-21.5 21.5-21.5h17c11.9 0 21.5 9.6 21.5 21.5 0 7.2-5.9 13-13 13zm-25.6-32.5c-10.8 0-19.5 8.7-19.5 19.5 0 6.1 4.9 11 11 11h34c6.1 0 11-4.9 11-11 0-10.8-8.7-19.5-19.5-19.5h-17z"/><path class="st2" d="M149.5 445.3l-2-.1v-1.1c0-11.2-9.1-20.4-20.4-20.4s-20.4 9.1-20.4 20.4h-2c0-12.3 10-22.4 22.4-22.4s22.4 10 22.4 22.4v1.2zM34.1 218.5h-5.2c-6.7 0-12.9-3-17.6-8.3-4.7-5.3-7.3-12.4-7.3-19.9v-7.2h16v7.2c0 6.6 4.1 12.2 8.9 12.2h5.2c2.3 0 4.5-1.2 6.2-3.5 1.7-2.3 2.7-5.5 2.7-8.7v-7.2h16v7.2c0 7.5-2.6 14.5-7.3 19.9-4.7 5.4-11 8.3-17.6 8.3zM6 185.2v5.2c0 7 2.4 13.6 6.8 18.5 4.3 4.9 10.1 7.6 16.1 7.6h5.2c6.1 0 11.8-2.7 16.1-7.6 4.4-5 6.8-11.5 6.8-18.5v-5.2H45v5.2c0 3.7-1.1 7.2-3.2 9.9-2.1 2.8-4.9 4.3-7.8 4.3h-5.2C23 204.5 18 198 18 190.3v-5.2l-12 .1zM249.3 241h-26v-2h24v-15.5c0-15.2-12.3-27.5-27.5-27.5-6.1 0-11.8 1.9-16.6 5.6L202 200c5.2-3.9 11.3-6 17.8-6 16.3 0 29.5 13.2 29.5 29.5V241z"/><path class="st2" d="M269.3 290c-22.6 0-41-22.4-41-50v-1h12v1c0 21 13 38 29 38s29-17 29-38v-23h12v23c0 27.6-18.4 50-41 50zm-39-49c.4 26 17.8 47 39 47 21.5 0 39-21.5 39-48v-21h-8v21c0 22.1-13.9 40-31 40-16.8 0-30.6-17.4-31-39h-8zm-27 172.2h-2v-88.8c0-.1 1-10.1-4.3-16.7-2.9-3.6-11-8.5-16.3-9h-.2l-1.2-.4.6-1.9 1.1.4c6 .7 14.5 5.9 17.6 9.7 5.8 7.2 4.8 18 4.8 18.1v.5l-.1 88.1z"/><path class="st2" d="M202.3 412.2h10v2h-10z"/><path class="st2" d="M213.3 413.2h-2v-88c.2-2.4.9-14.7-6.5-23.8-3.1-3.8-7.1-6.6-11.9-8.2l.6-1.9c5.2 1.7 9.6 4.7 12.9 8.8 7.8 9.8 7.1 22.7 6.9 25.2v87.9zM221 230h27.6v2H221zm-.2-4h27v2h-27zm21-2.5c1 0 1.9-.8 1.9-1.9 0-1-.8-1.9-1.9-1.9-1 0-1.9.8-1.9 1.9 0 1 .9 1.9 1.9 1.9zm-7.5 0c1 0 1.9-.8 1.9-1.9 0-1-.8-1.9-1.9-1.9-1 0-1.9.8-1.9 1.9 0 1 .9 1.9 1.9 1.9zm-6.9-.1c1-.3 1.5-1.4 1.2-2.4-.3-1-1.4-1.5-2.4-1.2-1 .3-1.5 1.4-1.2 2.4.3.9 1.4 1.5 2.4 1.2z"/><path class="st2" d="M224.6 447h-34c-7.2 0-13-5.8-13-13 0-11.9 9.6-21.5 21.5-21.5h17c11.9 0 21.5 9.6 21.5 21.5 0 7.2-5.8 13-13 13zm-25.5-32.5c-10.8 0-19.5 8.7-19.5 19.5 0 6.1 4.9 11 11 11h34c6.1 0 11-4.9 11-11 0-10.8-8.7-19.5-19.5-19.5h-17z"/><path class="st2" d="M185.9 445.3v-1.2c0-12.3 10-22.4 22.4-22.4s22.4 10 22.4 22.4h-2c0-11.2-9.1-20.4-20.4-20.4s-20.4 9.1-20.4 20.4v1.1l-2 .1zm115.3-226.8c-6.7 0-12.9-2.9-17.6-8.3-4.7-5.3-7.3-12.4-7.3-19.9v-7.2h16v7.2c0 3.2 1 6.3 2.7 8.7 1.7 2.3 3.9 3.5 6.2 3.5h5.2c4.8 0 8.9-5.6 8.9-12.2v-7.2h16v7.2c0 7.5-2.6 14.5-7.2 19.9-4.7 5.4-11 8.3-17.6 8.3h-5.3v-1 1c.1 0 .1 0 0 0zm-22.9-33.3v5.2c0 7 2.4 13.6 6.8 18.5 4.3 4.9 10.1 7.6 16.1 7.6h5.2c6.1 0 11.8-2.7 16.1-7.6 4.4-5 6.8-11.5 6.8-18.5v-5.2h-12v5.2c0 7.7-5 14.2-10.9 14.2h-5.2c-2.9 0-5.7-1.5-7.8-4.3-2-2.7-3.1-6.2-3.2-9.9v-5.2h-11.9z"/></g></svg>