<svg id="Horizontal" xmlns="http://www.w3.org/2000/svg" viewBox="0 0 2396.27 396"><defs><style>.cls-1{fill:#fff;}.cls-2{fill:#c9e095;}.cls-3{fill:#9ed19c;}.cls-4{fill:#6eb38e;}.cls-5{fill:#347d7b;}.cls-6{fill:#084061;}</style></defs><title>logo</title><g id="_10_-_Horizontal_Full_Color_-_White" data-name="10 - Horizontal Full Color - White"><g id="Logo"><g id="Logo_Text" data-name="Logo Text"><path class="cls-1" d="M436.54,230.92A68.61,68.61,0,0,0,486.27,252c18.3,0,27.21-8.68,27.21-17.6,0-11.72-13.61-15.71-31.66-19.94-25.58-5.86-58.42-12.9-58.42-47.85,0-26,22.52-47.14,59.35-47.14,24.86,0,45.51,7.5,61,21.81l-18.53,24.4c-12.67-11.73-29.56-17.13-44.8-17.13-15,0-23,6.57-23,15.95,0,10.56,13.13,13.84,31.19,18.07,25.81,5.86,58.64,13.6,58.64,48.32,0,28.61-20.4,50.19-62.63,50.19-30,0-51.6-10.08-66.38-24.86Z"/><path class="cls-1" d="M565.09,121.84h73.19c34,0,52.54,23,52.54,50.43,0,27.21-18.77,50-52.54,50H598.4V278.3H565.09Zm68.73,28.62H598.4v43.16h35.42c13.14,0,23-8.45,23-21.58C656.81,159.14,647,150.46,633.82,150.46Z"/><path class="cls-1" d="M789.11,251.32H719.22l-9.86,27H672.77l60.52-156.46H775L835.32,278.3H799Zm-61-28.85H780l-25.8-71.78Z"/><path class="cls-1" d="M829.71,200.19c0-48.09,36.35-80.93,82.1-80.93,35.65,0,55.59,18.77,66.61,38.23l-28.61,14.08a42.85,42.85,0,0,0-38-22.75c-27.22,0-47.86,21.81-47.86,51.37s20.64,51.37,47.86,51.37a42.42,42.42,0,0,0,38-22.75l28.61,13.84c-11.25,19.46-31,38.46-66.61,38.46C866.06,281.11,829.71,248.27,829.71,200.19Z"/><path class="cls-1" d="M993.68,121.84H1104.4v28.62H1027v34h75.77v28.62H1027v36.36h77.41V278.3H993.68Z"/><path class="cls-1" d="M1183.46,222.24h-24.4V278.3h-33.31V121.84h73.19c32.6,0,52.55,21.35,52.55,50.43,0,27.68-17.37,42.46-34.26,46.45l35.19,59.58h-38.23ZM1194,150.46h-35v43.16h35c13.38,0,23.46-8.45,23.46-21.58S1207.39,150.46,1194,150.46Z"/><path class="cls-1" d="M1376.29,251.32h-69.91l-9.85,27h-36.59l60.51-156.46h41.76L1422.5,278.3h-36.36Zm-61-28.85h51.84l-25.8-71.78Z"/><path class="cls-1" d="M1450.89,214.26l-60.28-92.42h38l38.94,62.87L1506,121.84h38l-59.81,92.42v64h-33.31Z"/><path class="cls-1" d="M1596.57,162.19c20.64,0,32.84,8.44,41.52,19.7l-11.73,10.79c-7.51-10.32-17.13-14.78-28.85-14.78-24.16,0-39.18,18.54-39.18,43.63s15,43.87,39.18,43.87c11.72,0,21.34-4.69,28.85-14.78l11.73,10.79c-8.68,11.26-20.88,19.7-41.52,19.7-33.78,0-56.53-25.8-56.53-59.58C1540,188,1562.79,162.19,1596.57,162.19Z"/><path class="cls-1" d="M1658,165h17.6v18.3c9.14-12,22.28-20.64,37.76-20.64v18.06a30.92,30.92,0,0,0-7-.71c-10.79,0-25.57,8.92-30.72,18.07V278.3H1658Z"/><path class="cls-1" d="M1780,162.19c34.25,0,54.43,26.74,54.43,60.75v4.46h-91.72c1.41,21.34,16.42,39.17,40.81,39.17,12.9,0,26-5.16,35-14.31l8.45,11.49c-11.26,11.26-26.51,17.36-45,17.36-33.54,0-57.7-24.16-57.7-59.58C1724.19,188.69,1747.64,162.19,1780,162.19Zm-37.29,52.3h74.35c-.23-16.88-11.49-37.76-37.29-37.76C1755.62,176.73,1743.65,197.14,1742.72,214.49Z"/><path class="cls-1" d="M1924.28,265.4c-9.38,10.32-22.28,15.71-37.53,15.71-19.23,0-39.64-12.9-39.64-37.53,0-25.33,20.41-37.29,39.64-37.29,15.48,0,28.39,4.92,37.53,15.48V201.36c0-15.25-12.19-23.93-28.61-23.93-13.61,0-24.64,4.93-34.72,15.72l-8.21-12.2c12.19-12.67,26.74-18.76,45.27-18.76,23.93,0,43.86,10.79,43.86,38.23V278.3h-17.59Zm0-32.37c-6.8-9.39-18.76-14.08-31.19-14.08-16.42,0-27.92,10.32-27.92,24.87,0,14.31,11.5,24.63,27.92,24.63,12.43,0,24.39-4.7,31.19-14.08Z"/><path class="cls-1" d="M1975.89,254.61V180.48h-18.76V165h18.76V134h17.6v31h23v15.48h-23v70.37c0,8.45,3.75,14.55,11.49,14.55,4.93,0,9.62-2.11,12-4.69l5.15,13.13c-4.45,4.22-10.79,7.27-21.1,7.27C1984.34,281.11,1975.89,271.5,1975.89,254.61Z"/><path class="cls-1" d="M2038.3,135a11.85,11.85,0,1,1,23.69,0,11.85,11.85,0,0,1-23.69,0Zm3,30h17.59V278.3h-17.59Z"/><path class="cls-1" d="M2077.24,165h19L2134,257.89,2171.54,165h19.23l-47.15,113.3h-19.23Z"/><path class="cls-1" d="M2244.26,162.19c34.25,0,54.42,26.74,54.42,60.75v4.46H2207c1.41,21.34,16.42,39.17,40.82,39.17,12.9,0,26-5.16,34.95-14.31l8.45,11.49c-11.27,11.26-26.51,17.36-45,17.36-33.55,0-57.71-24.16-57.71-59.58C2188.43,188.69,2211.89,162.19,2244.26,162.19Zm-37.3,52.3h74.36c-.23-16.88-11.49-37.76-37.29-37.76C2219.86,176.73,2207.9,197.14,2207,214.49Z"/></g><g id="Logo_Mark" data-name="Logo Mark"><path class="cls-1" d="M282.61,243.07a9.87,9.87,0,1,0-9.87-9.86A9.86,9.86,0,0,0,282.61,243.07Z"/><path class="cls-1" d="M366.35,198A139.34,139.34,0,1,0,227,337.34,139.34,139.34,0,0,0,366.35,198Zm-215.9,72.06c-4.58-14.94-18.83-31.12-49.73-28.33a128.75,128.75,0,0,1-6-24.87,136.32,136.32,0,0,1-1.27-19.39,132,132,0,0,1,6-38.76,134.1,134.1,0,0,1,36.86-58.14,133.06,133.06,0,0,1,223.56,97.67,134.58,134.58,0,0,1-1.29,18.62,132.63,132.63,0,0,1-11.3,38c-23.05-6.47-38.22,2.77-47.12,15.22a54.53,54.53,0,0,0-5.47,9.59c-56,0-23.82,32.49-65.41,32.49,0-2.49.77-21.94,1.59-42.08.88-21.63,1.82-44.05,2-47.15a66.56,66.56,0,0,0,22.55-6c8.6-3.88,17.29-9.39,27.18-16.08C302.7,187.17,328.66,190,336.22,190c-2.62-2-22.6-12.73-40.32-25.9-2.39-1.77-4.74-3.57-7-5.36-16.88-13.21-30.51-26.13-34.52-29.59-6.12-5.28-29.42-20.15-56,0-7.68,5.83-17.45,18.4-28.47,29.56A128.81,128.81,0,0,1,158.58,169C139.5,184.22,130,185.67,126,186.72a142.67,142.67,0,0,0,53.09,30.14,133.35,133.35,0,0,0,41.42,6.06c.28,11.07.76,29.74,1.2,47.14.57,22,1.08,41.9,1.08,41.9-39.05,0-7.54-32.63-70.61-32.63A38.49,38.49,0,0,0,150.45,270.06Zm59.27-128.2a1.43,1.43,0,0,1,2.15-1.3,8.42,8.42,0,1,1-11.5,11.51,1.42,1.42,0,0,1,1.3-2.15,7.38,7.38,0,0,0,8.05-8.06Zm34.2,2.25a7.37,7.37,0,0,0,7.7,5,1.42,1.42,0,0,1,1.3,2.15,8.42,8.42,0,1,1-11.5-11.51,1.42,1.42,0,0,1,2.14,1.3A7.56,7.56,0,0,0,243.92,144.11Z"/><path class="cls-1" d="M261.83,93.87a6.61,6.61,0,0,0-5.46,5.46,7.41,7.41,0,0,0-.06,1.24,6.57,6.57,0,0,0,13.06.84,6.11,6.11,0,0,0,.08-.84A6.58,6.58,0,0,0,261.83,93.87Z"/><path class="cls-1" d="M150,133.35a6.58,6.58,0,1,0,7.54,7.54A6.59,6.59,0,0,0,150,133.35Z"/><path class="cls-2" d="M256.37,99.33a6.58,6.58,0,0,1,13.08,1.24H317.3a132.83,132.83,0,0,0-180.94,0h120A7.41,7.41,0,0,1,256.37,99.33Z"/><path class="cls-3" d="M198.33,129.15c26.6-20.18,49.9-5.31,56,0,4,3.46,17.64,16.38,34.52,29.59H354a133.31,133.31,0,0,0-36.65-58.14H269.45a6.11,6.11,0,0,1-.08.84,6.57,6.57,0,0,1-13.06-.84H136.36A134.1,134.1,0,0,0,99.5,158.71h70.36C180.88,147.55,190.65,135,198.33,129.15Zm-46.26,17.19a6.58,6.58,0,1,1,5.46-5.45A6.58,6.58,0,0,1,152.07,146.34Z"/><path class="cls-4" d="M295.9,164.07c17.72,13.17,37.7,23.94,40.32,25.9-7.56,0-33.52-2.8-53.62,10.81-9.89,6.69-18.58,12.2-27.18,16.08H358.63A134.23,134.23,0,0,0,354,158.71H288.87C291.16,160.5,293.51,162.3,295.9,164.07Z"/><path class="cls-4" d="M126,186.72c4.06-1.05,13.54-2.5,32.62-17.7a128.81,128.81,0,0,0,11.28-10.31H99.5a132,132,0,0,0-6,38.76,136.32,136.32,0,0,0,1.27,19.39h84.32A142.67,142.67,0,0,1,126,186.72Z"/><path class="cls-5" d="M220.47,222.92a133.35,133.35,0,0,1-41.42-6.06H94.73a128.75,128.75,0,0,0,6,24.87c30.9-2.79,45.15,13.39,49.73,28.33h71.22C221.23,252.66,220.75,234,220.47,222.92Z"/><path class="cls-5" d="M232.87,222.91c-.13,3.1-1.07,25.52-2,47.15h69.29c8.9-12.45,24.07-21.69,47.12-15.22a132.63,132.63,0,0,0,11.3-38H255.42A66.56,66.56,0,0,1,232.87,222.91Zm49.74.43a9.87,9.87,0,1,1-9.87,9.87A9.86,9.86,0,0,1,282.61,223.34Z"/><path class="cls-6" d="M222.75,312s-.51-19.93-1.08-41.9H150.45a38.49,38.49,0,0,1,1.69,9.27C215.21,279.33,183.7,312,222.75,312Z"/><path class="cls-6" d="M229.33,312.14c41.59,0,9.42-32.49,65.41-32.49a54.53,54.53,0,0,1,5.47-9.59H230.92C230.1,290.2,229.33,309.65,229.33,312.14Z"/><path class="cls-4" d="M204.73,149.57a7.31,7.31,0,0,1-3.06.35,1.42,1.42,0,0,0-1.3,2.15,8.42,8.42,0,1,0,11.5-11.51,1.43,1.43,0,0,0-2.15,1.3,7.38,7.38,0,0,1-5,7.71Z"/><path class="cls-4" d="M241.42,139.74a8.42,8.42,0,1,0,11.5,11.51,1.42,1.42,0,0,0-1.3-2.15,7.37,7.37,0,0,1-7.7-5,7.56,7.56,0,0,1-.36-3.07A1.42,1.42,0,0,0,241.42,139.74Z"/></g></g></g></svg>