<?xml version="1.0" encoding="UTF-8"?>
<svg width="300px" height="300px" xmlns="http://www.w3.org/2000/svg" viewBox="0 0 396 396">
  <defs>
    <style>
        .cls-1 {
            fill: #fff;
        }

        .cls-2 {
            fill: #cae094;
        }

        .cls-3 {
            fill: #a0d39d;
        }

        .cls-4 {
            fill: #6eb58f;
        }

        .cls-5 {
            fill: #357c7b;
        }

        .cls-6 {
            fill: #0b4061;
        }
        </style>
  </defs>
  <title>logo</title>
  <g id="logo">
    <g id="_06_-_Full_Color">
      <g id="Logo">
        <g id="Logo_Text">
          <path d="M22.36,340.88a13.06,13.06,0,0,0,9.45,4c3.47,0,5.16-1.65,5.16-3.34,0-2.23-2.58-3-6-3.79-4.85-1.11-11.09-2.45-11.09-9.08,0-4.95,4.28-8.95,11.27-8.95a16.51,16.51,0,0,1,11.58,4.14L39.2,328.5a12.65,12.65,0,0,0-8.51-3.25c-2.85,0-4.36,1.25-4.36,3,0,2,2.49,2.63,5.92,3.43,4.9,1.11,11.14,2.58,11.14,9.17,0,5.44-3.88,9.53-11.89,9.53-5.71,0-9.8-1.91-12.61-4.72Z"></path>
          <path d="M46.77,320.17h13.9c6.46,0,10,4.37,10,9.58s-3.57,9.48-10,9.48H53.1v10.65H46.77Zm13.06,5.43H53.1v8.2h6.73a4.11,4.11,0,1,0,0-8.2Z"></path>
          <path d="M89.31,344.76H76l-1.87,5.12h-7l11.49-29.71h7.93l11.45,29.71H91.18Zm-11.58-5.48h9.85l-4.9-13.63Z"></path>
          <path d="M97,335.05c0-9.13,6.9-15.37,15.59-15.37a13.7,13.7,0,0,1,12.65,7.26l-5.44,2.67a8.14,8.14,0,0,0-7.21-4.32c-5.17,0-9.09,4.15-9.09,9.76s3.92,9.75,9.09,9.75a8,8,0,0,0,7.21-4.32l5.44,2.63a13.78,13.78,0,0,1-12.65,7.3C103.92,350.41,97,344.18,97,335.05Z"></path>
          <path d="M128.16,320.17h21v5.43h-14.7v6.46h14.39v5.44H134.48v6.9h14.7v5.48h-21Z"></path>
          <path d="M164.19,339.23h-4.63v10.65h-6.33V320.17h13.9c6.19,0,10,4.05,10,9.58,0,5.25-3.3,8.06-6.51,8.82l6.69,11.31H170Zm2-13.63h-6.64v8.2h6.64c2.53,0,4.45-1.6,4.45-4.1S168.73,325.6,166.2,325.6Z"></path>
          <path d="M200.81,344.76H187.53l-1.87,5.12h-6.95l11.49-29.71h7.93l11.45,29.71h-6.9Zm-11.58-5.48h9.84l-4.9-13.63Z"></path>
          <path d="M215,337.72l-11.45-17.55h7.22l7.39,11.94,7.31-11.94h7.21L221.3,337.72v12.16H215Z"></path>
          <path d="M242.63,327.83a9.24,9.24,0,0,1,7.89,3.74l-2.23,2.05a6.38,6.38,0,0,0-5.48-2.8c-4.59,0-7.44,3.51-7.44,8.28s2.85,8.33,7.44,8.33a6.48,6.48,0,0,0,5.48-2.81l2.23,2.05a9.22,9.22,0,0,1-7.89,3.74c-6.41,0-10.73-4.9-10.73-11.31S236.22,327.83,242.63,327.83Z"></path>
          <path d="M254.3,328.37h3.34v3.47a9.17,9.17,0,0,1,7.17-3.92v3.43a5.82,5.82,0,0,0-1.33-.13,7.87,7.87,0,0,0-5.84,3.43v15.23H254.3Z"></path>
          <path d="M277.46,327.83c6.51,0,10.34,5.08,10.34,11.54v.84H270.38a7.58,7.58,0,0,0,7.75,7.44,9.43,9.43,0,0,0,6.64-2.71l1.6,2.18a11.69,11.69,0,0,1-8.55,3.29c-6.37,0-11-4.58-11-11.31C266.86,332.86,271.32,327.83,277.46,327.83Zm-7.08,9.93H284.5c0-3.2-2.18-7.17-7.08-7.17C272.83,330.59,270.56,334.47,270.38,337.76Z"></path>
          <path d="M304.86,347.43a9.3,9.3,0,0,1-7.13,3c-3.65,0-7.52-2.45-7.52-7.12s3.87-7.08,7.52-7.08a9,9,0,0,1,7.13,2.93v-3.87c0-2.89-2.32-4.54-5.43-4.54a8.55,8.55,0,0,0-6.6,3l-1.56-2.32a11.29,11.29,0,0,1,8.6-3.56c4.54,0,8.33,2.05,8.33,7.26v14.79h-3.34Zm0-6.15a7.2,7.2,0,0,0-5.92-2.67c-3.12,0-5.31,2-5.31,4.72s2.19,4.68,5.31,4.68a7.2,7.2,0,0,0,5.92-2.67Z"></path>
          <path d="M314.66,345.38V331.31H311.1v-2.94h3.56v-5.88H318v5.88h4.36v2.94H318v13.36c0,1.6.71,2.76,2.18,2.76a3.2,3.2,0,0,0,2.27-.89l1,2.49a5.43,5.43,0,0,1-4,1.38C316.26,350.41,314.66,348.59,314.66,345.38Z"></path>
          <path d="M326.51,322.49a2.25,2.25,0,0,1,4.5,0,2.25,2.25,0,1,1-4.5,0Zm.58,5.88h3.34v21.51h-3.34Z"></path>
          <path d="M333.9,328.37h3.61L344.68,346l7.13-17.63h3.65l-8.95,21.51h-3.66Z"></path>
          <path d="M365.62,327.83c6.5,0,10.33,5.08,10.33,11.54v.84H358.53a7.58,7.58,0,0,0,7.75,7.44,9.43,9.43,0,0,0,6.64-2.71l1.6,2.18a11.69,11.69,0,0,1-8.55,3.29c-6.37,0-11-4.58-11-11.31C355,332.86,359.47,327.83,365.62,327.83Zm-7.09,9.93h14.12c0-3.2-2.18-7.17-7.08-7.17C361,330.59,358.71,334.47,358.53,337.76Z"></path>
        </g>
        <g id="Logo_Mark">
          <path class="cls-1" d="M131.34,94.36a5.69,5.69,0,1,0,6.52,6.52A5.71,5.71,0,0,0,131.34,94.36Z"></path>
          <path class="cls-1" d="M228.13,60.19a5.73,5.73,0,0,0-4.73,4.73,5.53,5.53,0,0,0-.06,1.07,5.69,5.69,0,0,0,11.31.73,4.59,4.59,0,0,0,.06-.73A5.69,5.69,0,0,0,228.13,60.19Z"></path>
          <path class="cls-1" d="M318.57,150.31A120.58,120.58,0,1,0,198,270.88,120.57,120.57,0,0,0,318.57,150.31ZM131.74,212.66c-4-12.92-16.3-26.93-43-24.51a110.85,110.85,0,0,1-5.16-21.53,117.52,117.52,0,0,1-1.12-16.77,114.26,114.26,0,0,1,5.22-33.54A116,116,0,0,1,119.54,66,115.14,115.14,0,0,1,313,150.51a117.17,117.17,0,0,1-1.11,16.11,114.55,114.55,0,0,1-9.78,32.87c-19.95-5.6-33.08,2.4-40.78,13.17A47.35,47.35,0,0,0,256.6,221c-48.45,0-20.62,28.11-56.6,28.11,0-2.16.66-19,1.37-36.42.76-18.71,1.58-38.12,1.69-40.8a57.43,57.43,0,0,0,19.52-5.24c7.44-3.35,15-8.12,23.52-13.91,17.39-11.78,39.85-9.35,46.4-9.35-2.27-1.7-19.56-11-34.89-22.41q-3.11-2.31-6.08-4.64c-14.62-11.43-26.41-22.61-29.88-25.61-5.3-4.57-25.46-17.44-48.48,0-6.65,5-15.1,15.91-24.63,25.58a112.52,112.52,0,0,1-9.77,8.92c-16.51,13.15-24.71,14.41-28.23,15.32a123.63,123.63,0,0,0,45.94,26.07,115.31,115.31,0,0,0,35.85,5.25c.24,9.58.66,25.74,1,40.79.49,19,.93,36.26.93,36.26-33.79,0-6.52-28.23-61.1-28.23A33.72,33.72,0,0,0,131.74,212.66ZM183,101.73a1.23,1.23,0,0,1,1.86-1.13,7.29,7.29,0,1,1-10,10,1.23,1.23,0,0,1,1.13-1.86,6.49,6.49,0,0,0,2.65-.3,6.38,6.38,0,0,0,4.32-6.67Zm29.59,1.94a6.42,6.42,0,0,0,6.67,4.32,1.23,1.23,0,0,1,1.12,1.86,7.29,7.29,0,1,1-9.95-10,1.23,1.23,0,0,1,1.86,1.13A6.33,6.33,0,0,0,212.62,103.67Z"></path>
          <path class="cls-1" d="M246.11,189.31a8.54,8.54,0,1,0-8.55-8.54A8.54,8.54,0,0,0,246.11,189.31Z"></path>
          <path class="cls-2" d="M223.4,64.92A5.69,5.69,0,0,1,234.71,66h41.41a115,115,0,0,0-156.58,0h103.8A5.53,5.53,0,0,1,223.4,64.92Z"></path>
          <path class="cls-3" d="M173.17,90.73c23-17.47,43.18-4.6,48.48,0,3.47,3,15.26,14.18,29.88,25.61h56.31A115.23,115.23,0,0,0,276.12,66H234.71a4.59,4.59,0,0,1-.06.73A5.69,5.69,0,0,1,223.34,66H119.54a116,116,0,0,0-31.9,50.32h60.9C158.07,106.64,166.52,95.77,173.17,90.73Zm-40,14.87a5.69,5.69,0,1,1,4.72-4.72A5.7,5.7,0,0,1,133.14,105.6Z"></path>
          <path class="cls-4" d="M257.61,121c15.33,11.39,32.62,20.71,34.89,22.41-6.55,0-29-2.43-46.4,9.35-8.56,5.79-16.08,10.56-23.52,13.91h89.31A117.17,117.17,0,0,0,313,150.51a115.28,115.28,0,0,0-5.16-34.2H251.53Q254.5,118.64,257.61,121Z"></path>
          <path class="cls-4" d="M110.54,140.55c3.52-.91,11.72-2.17,28.23-15.32a112.52,112.52,0,0,0,9.77-8.92H87.64a114.26,114.26,0,0,0-5.22,33.54,117.52,117.52,0,0,0,1.12,16.77h72.94A123.63,123.63,0,0,1,110.54,140.55Z"></path>
          <path class="cls-5" d="M192.33,171.87a115.31,115.31,0,0,1-35.85-5.25H83.54a110.85,110.85,0,0,0,5.16,21.53c26.74-2.42,39.07,11.59,43,24.51h61.63C193,197.61,192.57,181.45,192.33,171.87Z"></path>
          <path class="cls-5" d="M203.06,171.86c-.11,2.68-.93,22.09-1.69,40.8h60c7.7-10.77,20.83-18.77,40.78-13.17a114.55,114.55,0,0,0,9.78-32.87H222.58A57.43,57.43,0,0,1,203.06,171.86Zm43.05.37a8.54,8.54,0,1,1-8.55,8.54A8.54,8.54,0,0,1,246.11,172.23Z"></path>
          <path class="cls-6" d="M194.3,248.92s-.44-17.25-.93-36.26H131.74a33.72,33.72,0,0,1,1.46,8C187.78,220.69,160.51,248.92,194.3,248.92Z"></path>
          <path class="cls-6" d="M200,249.08c36,0,8.15-28.11,56.6-28.11a47.35,47.35,0,0,1,4.73-8.31h-60C200.66,230.09,200,246.92,200,249.08Z"></path>
          <path class="cls-4" d="M178.71,108.4a6.49,6.49,0,0,1-2.65.3,1.23,1.23,0,0,0-1.13,1.86,7.29,7.29,0,1,0,10-10,1.23,1.23,0,0,0-1.86,1.13,6.38,6.38,0,0,1-4.32,6.67Z"></path>
          <path class="cls-4" d="M210.46,99.89a7.29,7.29,0,1,0,9.95,10,1.23,1.23,0,0,0-1.12-1.86,6.38,6.38,0,0,1-7-7A1.23,1.23,0,0,0,210.46,99.89Z"></path>
        </g>
      </g>
    </g>
  </g>
</svg>
